<svg xmlns="http://www.w3.org/2000/svg" width="25.548" height="34.064" viewBox="0 0 25.548 34.064">
  <path id="Path_12" data-name="Path 12" d="M21.29,0H4.258A4.262,4.262,0,0,0,0,4.258V29.806a4.262,4.262,0,0,0,4.258,4.258H21.29a4.262,4.262,0,0,0,4.258-4.258V4.258A4.262,4.262,0,0,0,21.29,0Zm2.129,29.806a2.135,2.135,0,0,1-2.129,2.129H4.258a2.135,2.135,0,0,1-2.129-2.129V4.258A2.135,2.135,0,0,1,4.258,2.129H21.29a2.135,2.135,0,0,1,2.129,2.129ZM9.581,6.387h6.387a1.065,1.065,0,1,0,0-2.129H9.581a1.065,1.065,0,0,0,0,2.129Zm3.194,13.839A5.323,5.323,0,1,0,7.452,14.9,5.321,5.321,0,0,0,12.774,20.226Zm0-8.516A3.194,3.194,0,1,1,9.581,14.9,3.194,3.194,0,0,1,12.774,11.71Zm3.114,9.581c-1.3,0-1.623.466-3.114.466s-1.816-.466-3.114-.466a4.251,4.251,0,0,0-3.579,1.823,4.453,4.453,0,0,0-.758,2.495v2.6a.534.534,0,0,0,.532.532H6.919a.534.534,0,0,0,.532-.532v-2.6A2.115,2.115,0,0,1,9.66,23.419a23.59,23.59,0,0,0,3.114.466,23.974,23.974,0,0,0,3.114-.466A2.111,2.111,0,0,1,18.1,25.608v2.6a.534.534,0,0,0,.532.532h1.065a.534.534,0,0,0,.532-.532v-2.6a4.453,4.453,0,0,0-.758-2.495A4.268,4.268,0,0,0,15.888,21.29Z" fill="#000"/>
</svg>
