<svg xmlns="http://www.w3.org/2000/svg" width="30.913" height="23.185" viewBox="0 0 30.913 23.185">
  <path id="Path_11" data-name="Path 11" d="M1.932,73.244a.969.969,0,0,1,.966-.966h8.694V66.608a.482.482,0,0,1,.821-.344l8.549,8.64a.966.966,0,0,1,0,1.371l-8.549,8.64a.481.481,0,0,1-.821-.344V78.9H2.9a.969.969,0,0,1-.966-.966V73.244M0,73.244v4.691a2.9,2.9,0,0,0,2.9,2.9H9.66V84.57a2.414,2.414,0,0,0,4.118,1.709l8.555-8.634a2.9,2.9,0,0,0,0-4.106L13.778,64.9A2.414,2.414,0,0,0,9.66,66.608v3.737H2.9A2.9,2.9,0,0,0,0,73.244ZM30.913,84.287V66.9a2.9,2.9,0,0,0-2.9-2.9h-7.97a.727.727,0,0,0-.725.725v.483a.727.727,0,0,0,.725.725h7.97a.969.969,0,0,1,.966.966V84.287a.969.969,0,0,1-.966.966h-7.97a.727.727,0,0,0-.725.725v.483a.727.727,0,0,0,.725.725h7.97A2.9,2.9,0,0,0,30.913,84.287Z" transform="translate(0 -64)" fill="#000" />
</svg>
