<svg xmlns="http://www.w3.org/2000/svg" width="96.556" height="120.019" viewBox="0 0 96.556 120.019">
  <g transform="translate(-206.341 -611.403)">
    <path d="M-1.215.155,3.37-6.353l-1.3,81.947-4.546-2.12Z" transform="translate(233.339 723.916) rotate(-115)" fill="#303030" />
    <g transform="translate(-10.689 -26.741)">
      <g transform="translate(229.614 736.782)">
        <path d="M0,0,10.581,8.182,12.35,21.37,1.421,13.5Z" transform="translate(0 10.695) rotate(-60)" fill="#fff" />
        <g transform="translate(0.02 10.673)" opacity="0.95">
          <path d="M0,0,12.374,5.532v4.78L0,4.78Z" transform="translate(0 0)" fill="#fff" />
          <path d="M12.374,0,0,5.532v4.78L12.374,4.78Z" transform="translate(12.292 0)" fill="#fff" opacity="0.5" />
        </g>
      </g>
      <path d="M0,0,5.791,2.433,5.159,61.116,0,58.972Z" transform="translate(236.903 688.785)" fill="#f3f7ff" />
      <path d="M5.791,0,0,2.433.35,61.067l5.442-2.095Z" transform="translate(241.737 688.785)" fill="#83b0ff" />
      <g transform="translate(217.031 638.144)">
        <path d="M0,.794,41.72,18.92,41.71,53.931,0,36.909Z" transform="translate(0.01 6.913)" fill="#f3f7ff" />
        <path d="M4.327,5.317.094,7.155.084,42.181,4.327,38.8Z" transform="translate(41.624 18.663)" fill="#fff" opacity="0.5" />
        <path d="M0,0,3.541,3.287,8.892,47.943l-3.732-2.7Z" transform="translate(0 7.701) rotate(-60)" fill="#fff" />
      </g>
    </g>
  </g>
</svg>
